<svg xmlns="http://www.w3.org/2000/svg" viewBox="0 0 1200 630" role="img" aria-label="OpenProject 分享图模板">
  <defs><linearGradient id="wash" x1="0" y1="0" x2="1" y2="1"><stop stop-color="#F7FAFC"/><stop offset="1" stop-color="#DCEEF5"/></linearGradient></defs>
  <rect width="1200" height="630" fill="url(#wash)"/>
  <path d="M890 0h310v630H720z" fill="#055088" opacity=".08"/>
  <text x="78" y="220" fill="#0B1F33" font-family="system-ui, PingFang SC, Microsoft YaHei, sans-serif" font-size="68" font-weight="700">页面标题</text>
  <text x="78" y="290" fill="#526577" font-family="system-ui, PingFang SC, Microsoft YaHei, sans-serif" font-size="32">补充说明控制在一行以内</text>
  <text x="78" y="540" fill="#055088" font-family="system-ui, sans-serif" font-size="25" font-weight="700">OpenProject DESIGN</text>
  <g transform="translate(818 462) scale(0.8)">
    <g transform="translate(-2.5 0)">
      <g fill="none" stroke="#055088" stroke-width="9" stroke-linecap="round" stroke-linejoin="round">
        <path d="M56 24a21 21 0 1 0 0 32"/>
        <circle cx="91" cy="40" r="21"/>
        <path d="M21 76v18a18 18 0 0 0 36 0V76"/>
        <path d="M76 76h34M93 76v36"/>
      </g>
      <circle cx="110" cy="59" r="5.5" fill="#6ADFA3"/>
    </g>
    <line x1="136" y1="20" x2="136" y2="108" stroke="#055088" stroke-width="2" opacity="0.2" stroke-linecap="round"/>
    <text x="160" y="56" fill="#0B1F33" font-family="system-ui, PingFang SC, Microsoft YaHei, sans-serif" font-size="40" font-weight="700">OpenProject</text>
    <text x="160" y="98" fill="#526577" font-family="system-ui, PingFang SC, Microsoft YaHei, sans-serif" font-size="22">重庆理工大学开源计划</text>
  </g>
</svg>
